<?xml version="1.0" encoding="UTF-8"?><svg id="Layer_2" xmlns="http://www.w3.org/2000/svg" viewBox="0 0 30.45 30.45"><defs><style>.cls-1,.cls-2{fill:#fff;}.cls-2{fill-rule:evenodd;}</style></defs><g id="Layer_1-2"><path class="cls-2" d="m15.22,23.53c4.59,0,8.3-3.72,8.3-8.3s-3.72-8.3-8.3-8.3-8.3,3.72-8.3,8.3,3.72,8.3,8.3,8.3Zm0-2.77c3.06,0,5.54-2.48,5.54-5.54s-2.48-5.54-5.54-5.54-5.54,2.48-5.54,5.54,2.48,5.54,5.54,5.54Z"/><path class="cls-1" d="m23.53,5.54c-.76,0-1.38.62-1.38,1.38s.62,1.38,1.38,1.38,1.38-.62,1.38-1.38-.62-1.38-1.38-1.38Z"/><path class="cls-2" d="m.91,4.53c-.91,1.78-.91,4.1-.91,8.75v3.87c0,4.65,0,6.98.91,8.75.8,1.56,2.07,2.83,3.63,3.63,1.78.91,4.1.91,8.75.91h3.87c4.65,0,6.98,0,8.75-.91,1.56-.8,2.83-2.07,3.63-3.63.91-1.78.91-4.1.91-8.75v-3.87c0-4.65,0-6.98-.91-8.75-.8-1.56-2.07-2.83-3.63-3.63-1.78-.91-4.1-.91-8.75-.91h-3.87c-4.65,0-6.98,0-8.75.91-1.56.8-2.83,2.07-3.63,3.63Zm16.26-1.77h-3.87c-2.37,0-3.98,0-5.23.1-1.21.1-1.83.28-2.27.5-1.04.53-1.89,1.38-2.42,2.42-.22.43-.4,1.05-.5,2.27-.1,1.25-.1,2.86-.1,5.23v3.87c0,2.37,0,3.98.1,5.23.1,1.21.28,1.83.5,2.27.53,1.04,1.38,1.89,2.42,2.42.43.22,1.05.4,2.27.5,1.25.1,2.86.1,5.23.1h3.87c2.37,0,3.98,0,5.23-.1,1.21-.1,1.83-.28,2.27-.5,1.04-.53,1.89-1.38,2.42-2.42.22-.43.4-1.05.5-2.27.1-1.25.1-2.86.1-5.23v-3.87c0-2.37,0-3.98-.1-5.23-.1-1.21-.28-1.83-.5-2.27-.53-1.04-1.38-1.89-2.42-2.42-.43-.22-1.05-.4-2.27-.5-1.25-.1-2.86-.1-5.23-.1Z"/></g></svg>