<?xml version="1.0" encoding="UTF-8"?><svg id="Layer_2" xmlns="http://www.w3.org/2000/svg" viewBox="0 0 29.54 29.54"><defs><style>.cls-1{fill:#fff;}</style></defs><g id="Layer_1-2"><path class="cls-1" d="m27.36,0H2.18C.98,0,0,.95,0,2.12v25.31c0,1.17.98,2.12,2.18,2.12h25.17c1.21,0,2.18-.95,2.18-2.12V2.12c0-1.17-.98-2.12-2.18-2.12ZM4.56,24.72v-13.3h4.42v13.3h-4.42Zm2.21-15.11h-.03c-1.48,0-2.44-1.02-2.44-2.3s.99-2.3,2.5-2.3,2.44.99,2.47,2.3c0,1.28-.96,2.3-2.5,2.3Zm18.15,15.11h-4.42v-7.11c0-1.79-.64-3.01-2.24-3.01-1.22,0-1.95.82-2.27,1.62-.12.28-.15.68-.15,1.08v7.43h-4.42s.06-12.05,0-13.3h4.42v1.88c.59-.91,1.64-2.2,3.98-2.2,2.91,0,5.09,1.9,5.09,5.99v7.62Z"/></g></svg>