<?xml version="1.0" encoding="UTF-8"?><svg id="Layer_2" xmlns="http://www.w3.org/2000/svg" xmlns:xlink="http://www.w3.org/1999/xlink" viewBox="0 0 388.67 82.8"><defs><style>.cls-1{fill:url(#linear-gradient-2);}.cls-2{fill:url(#linear-gradient-6);}.cls-3{fill:url(#linear-gradient-5);}.cls-4{fill:url(#linear-gradient-3);}.cls-5{fill:url(#linear-gradient);}.cls-6{fill:url(#linear-gradient-4);}</style><linearGradient id="linear-gradient" x1="-7.28" y1="35.69" x2="68.32" y2="51.7" gradientUnits="userSpaceOnUse"><stop offset="0" stop-color="#d6d7d4"/><stop offset=".53" stop-color="#fff"/><stop offset="1" stop-color="#999"/></linearGradient><linearGradient id="linear-gradient-2" x1="67.67" y1="38.2" x2="97.33" y2="44.48" xlink:href="#linear-gradient"/><linearGradient id="linear-gradient-3" x1="99.21" y1="36.04" x2="176.87" y2="52.49" xlink:href="#linear-gradient"/><linearGradient id="linear-gradient-4" x1="184.82" y1="34.06" x2="253.53" y2="48.61" xlink:href="#linear-gradient"/><linearGradient id="linear-gradient-5" x1="254.06" y1="34.06" x2="322.77" y2="48.61" xlink:href="#linear-gradient"/><linearGradient id="linear-gradient-6" x1="324.88" y1="34.58" x2="391.24" y2="48.64" xlink:href="#linear-gradient"/></defs><g id="Layer_1-2"><path class="cls-5" d="m45.72,81.36l-17.64-29.88h-14.04v29.88H0V1.32h35.16c15.84,0,26.28,10.2,26.28,25.08s-9.36,21.96-19.08,23.52l19.68,31.44h-16.32Zm1.32-55.08c0-7.68-5.76-12.6-13.68-12.6H14.04v25.44h19.32c7.92,0,13.68-5.04,13.68-12.84Z"/><path class="cls-1" d="m75.48,81.36V1.32h14.04v80.04h-14.04Z"/><path class="cls-4" d="m106.56,81.36V1.32h29.76c25.08,0,41.88,16.56,41.88,39.96s-16.8,40.08-41.76,40.08h-29.88Zm57.24-40.08c0-15.36-9.6-27.6-27.36-27.6h-15.84v55.32h15.72c17.4,0,27.48-12.48,27.48-27.72Z"/><path class="cls-6" d="m191.76,81.36V1.32h54.84v12.36h-40.8v20.64h39.96v12.36h-39.96v22.32h40.8v12.36h-54.84Z"/><path class="cls-3" d="m261,81.36V1.32h54.84v12.36h-40.8v20.64h39.96v12.36h-39.96v22.32h40.8v12.36h-54.84Z"/><path class="cls-2" d="m325.08,70.08l7.92-10.92c5.4,5.88,14.16,11.16,25.32,11.16s15.96-5.64,15.96-11.04c0-16.8-46.56-6.36-46.56-35.76,0-13.32,11.52-23.52,29.16-23.52,12.36,0,22.56,4.08,29.88,11.28l-7.92,10.44c-6.36-6.36-14.88-9.24-23.28-9.24s-13.44,4.08-13.44,9.96c0,15,46.56,5.76,46.56,35.52,0,13.32-9.48,24.84-30.96,24.84-14.76,0-25.44-5.28-32.64-12.72Z"/></g></svg>