<?xml version="1.0" encoding="UTF-8"?><svg id="Layer_2" xmlns="http://www.w3.org/2000/svg" viewBox="0 0 30.19 30.19"><defs><style>.cls-1{fill:#fff;}</style></defs><g id="Layer_1-2"><path class="cls-1" d="m28.68,0H1.51C.68,0,0,.68,0,1.51v27.17c0,.83.68,1.51,1.51,1.51h27.17c.83,0,1.51-.68,1.51-1.51V1.51c0-.83-.68-1.51-1.51-1.51Zm-4.95,13.17h0c-.16.02-.33.02-.5.03-1.82,0-3.52-.91-4.51-2.43v8.29c0,3.39-2.74,6.13-6.13,6.13-3.39,0-6.13-2.74-6.13-6.13,0-3.39,2.74-6.13,6.13-6.13h0c.13,0,.25.01.38.02v3.02c-1.71-.21-3.27,1.01-3.47,2.72-.21,1.71,1.01,3.27,2.72,3.47.12.01.25.02.37.02,1.75.03,3.2-1.34,3.26-3.09l.03-14.08h2.89c.27,2.59,2.36,4.61,4.96,4.8v3.36Z"/></g></svg>